<svg xmlns="http://www.w3.org/2000/svg" xmlns:xlink="http://www.w3.org/1999/xlink" viewBox="0 0 175.92 175.91"><defs><style>.cls-1{fill:url(#radial-gradient);}.cls-2{fill:#fff;}</style><radialGradient id="radial-gradient" cx="89.3" cy="215.47" r="236.94" gradientUnits="userSpaceOnUse"><stop offset="0" stop-color="#3b5998"/><stop offset="0.3" stop-color="#3b5998"/><stop offset="1" stop-color="#5f83cf"/></radialGradient></defs><g id="Layer_2" data-name="Layer 2"><g id="Layer_1-2" data-name="Layer 1"><path class="cls-1" d="M175.92,139.78a36.12,36.12,0,0,1-36.13,36.13H36.14A36.13,36.13,0,0,1,0,139.78V36.13A36.13,36.13,0,0,1,36.14,0H139.79a36.12,36.12,0,0,1,36.13,36.13Z"/><path class="cls-2" d="M135.26,48.36h16.23V22.85H127.17s-15.29-.38-25,12.29c0,0-6.64,6.26-6.74,24.59h0V78.86h-24v27.08h24v70h27.73v-70H147l3.32-27.08H123.11V59.73h0C123.17,57.59,124.12,48.16,135.26,48.36Z"/></g></g></svg>