<svg xmlns="http://www.w3.org/2000/svg" viewBox="0 0 211.94 148.75"><defs><style>.cls-1{fill:#00c6f5;}.cls-2{fill:#00ace4;}.cls-3{fill:#ffca28;}</style></defs><g id="Layer_2" data-name="Layer 2"><g id="Layer_1-2" data-name="Layer 1"><path class="cls-1" d="M184.21,57.65a34.66,34.66,0,0,0-10.16-9.11A26.14,26.14,0,0,0,168.83,37a20.53,20.53,0,0,0-13.61-8,16.2,16.2,0,0,0-9.18,1.6c-10.39-11.14-25.35-14.33-38-8.4a31.36,31.36,0,0,0-25.6-10.4c-11.63.89-22.34,8.25-29,19.06a23.62,23.62,0,0,0-2.64.27c-10.2,1.57-19.39,9.24-24.39,19.38C16.89,52.76,9.3,63.07,9.3,73.18a16.72,16.72,0,0,0,1.78,7.76,35.28,35.28,0,0,0-7.17,20.74c0,7.24,2.63,13.33,7.41,17.31,7.73,6.41,19.2,6,28.7-.16,6.69,7.69,16.76,11.57,27.71,10.69A38.75,38.75,0,0,0,94,116a35.65,35.65,0,0,0,36-2.45c11.22,10.78,27.85,12.3,38.25,2.65a25.12,25.12,0,0,0,6-8.71,22.24,22.24,0,0,0,9.94-5.21c5.33-4.83,8.26-12.08,8.26-20.53A40.28,40.28,0,0,0,184.21,57.65Zm-4.86,38.2a17.21,17.21,0,0,1-10.41,4.48,20,20,0,0,1-5.53,9.64c-8.39,7.88-22,6.19-30.49-3.59a26.8,26.8,0,0,1-2.4-3.29c-.22.25-.44.5-.68.74-10.23,10.34-26.21,10.9-37.57,2.42a31.67,31.67,0,0,1-24.54,15.84c-11.26.93-21-4.55-25.74-13.74-7.36,8.35-18.77,10.28-25.83,4.36-7.25-6.08-7.25-18.59,0-28.1a25.53,25.53,0,0,1,4.72-4.74c-2.86-1.4-4.75-4.42-4.75-8.37,0-6.26,4.74-12.51,10.63-13.76a9.14,9.14,0,0,1,3.68,0c2.85-9.62,10.85-17.76,20.32-19.21a18.82,18.82,0,0,1,6,0c4.85-10.49,14.5-18.47,25.66-19.3,9.88-.76,18.62,4.31,23.87,12.41,11.27-8.06,26.47-6.14,36.32,5.51a34.75,34.75,0,0,1,2.77,3.77,12.19,12.19,0,0,1,1.09-1.29c4.84-4.85,12.66-4,17.48,2a16.22,16.22,0,0,1,3.51,11.76,24.81,24.81,0,0,1,11.89,8.7C187.7,73.06,187.7,88.24,179.35,95.85Z"/><path class="cls-2" d="M187.31,112.58q11.06,7.22,22,15.14c.87-2.61,1.73-5.23,2.6-7.84Q199.69,115.82,187.31,112.58Z"/><path class="cls-1" d="M196,137.1l5-6q-7.65-7.44-15.36-14.52Q190.8,126.73,196,137.1Z"/><path class="cls-2" d="M108.34,0l-4.78.41q2.56,7.37,5.12,14.77Q108.51,7.59,108.34,0Z"/><path class="cls-1" d="M113,3.73l-1.8,11.49q3.25-5.07,6.52-10.1C116.13,4.65,114.56,4.18,113,3.73Z"/><path class="cls-1" d="M31.89,148.75q4.17-10,8.35-20.08-6.59,8.6-13.15,17.37C28.69,146.93,30.29,147.84,31.89,148.75Z"/><path class="cls-1" d="M37.91,126.94q-7.57,3.52-15.12,7.33L26,138.79Q32,132.79,37.91,126.94Z"/><path class="cls-1" d="M192.89,24.07Q185.8,30.43,178.65,37q8.72-3.48,17.37-6.61Z"/><path class="cls-1" d="M3.39,29.29,0,35.4q12.51,4.07,25.15,9.08Q14.23,36.5,3.39,29.29Z"/><path class="cls-1" d="M106.44,138.76c1.5-.18,3-.36,4.48-.52q-1.73-7.31-3.44-14.56Q107,131.21,106.44,138.76Z"/><path class="cls-3" d="M170.11,26.54c.21.87.42,1.73.64,2.6l.63-2.52a3.66,3.66,0,0,1,2.72-2.78l2.35-.52-2.35-.86a4.48,4.48,0,0,1-2.73-3.16c-.21-.86-.42-1.73-.64-2.6l-.63,2.53A3.74,3.74,0,0,1,167.38,22L165,22.6l2.36.81A4.4,4.4,0,0,1,170.11,26.54Z"/><path class="cls-3" d="M98.08,124.09c-.16-.58-.31-1.17-.47-1.76l-.45,1.85a3.3,3.3,0,0,1-2,2.28l-1.71.66,1.71.32a2.52,2.52,0,0,1,2,1.9c.15.59.31,1.17.46,1.76.16-.61.31-1.23.46-1.85a3.26,3.26,0,0,1,2-2.27l1.71-.63-1.71-.34A2.56,2.56,0,0,1,98.08,124.09Z"/><path class="cls-3" d="M195.42,100.24a2.51,2.51,0,0,1-2,1.93c-.58.08-1.15.18-1.73.27l1.74.76a3.65,3.65,0,0,1,2,2.52c.16.66.31,1.32.47,2,.16-.61.31-1.23.47-1.84a2.43,2.43,0,0,1,2-1.92l1.74-.24-1.74-.79a3.76,3.76,0,0,1-2-2.53c-.16-.67-.31-1.33-.47-2Z"/><path class="cls-3" d="M4.85,56.75c.21.71.41,1.43.61,2.14.2-.86.4-1.72.61-2.58a6.11,6.11,0,0,1,2.6-3.66l2.26-1.42-2.26.14a2.4,2.4,0,0,1-2.61-1.81c-.2-.72-.41-1.43-.61-2.15L4.85,50a6.24,6.24,0,0,1-2.61,3.69L0,55.15,2.25,55A2.35,2.35,0,0,1,4.85,56.75Z"/><path class="cls-2" d="M179.35,62.15a24.81,24.81,0,0,0-11.89-8.7A16.22,16.22,0,0,0,164,41.69c-4.82-6-12.64-6.9-17.48-2a12.19,12.19,0,0,0-1.09,1.29,34.75,34.75,0,0,0-2.77-3.77c-9.85-11.65-25.05-13.57-36.32-5.51-5.25-8.1-14-13.17-23.87-12.41-11.16.83-20.81,8.81-25.66,19.3a18.82,18.82,0,0,0-6,0c-9.47,1.45-17.47,9.59-20.32,19.21a9.14,9.14,0,0,0-3.68,0C20.87,59,16.13,65.24,16.13,71.5c0,4,1.89,7,4.75,8.37a25.53,25.53,0,0,0-4.72,4.74c-7.25,9.51-7.25,22,0,28.1,7.06,5.92,18.47,4,25.83-4.36,4.77,9.19,14.48,14.67,25.74,13.74a31.67,31.67,0,0,0,24.54-15.84c11.36,8.48,27.34,7.92,37.57-2.42.24-.24.46-.49.68-.74a26.8,26.8,0,0,0,2.4,3.29c8.44,9.78,22.1,11.47,30.49,3.59a20,20,0,0,0,5.53-9.64,17.21,17.21,0,0,0,10.41-4.48C187.7,88.24,187.7,73.06,179.35,62.15Z"/></g></g></svg>