<svg xmlns="http://www.w3.org/2000/svg" viewBox="0 0 218.83 149.4"><defs><style>.cls-1{fill:#6bc62a;}.cls-2{fill:#ffca28;}.cls-3{fill:#00b53e;}</style></defs><g id="Layer_2" data-name="Layer 2"><g id="Layer_1-2" data-name="Layer 1"><path class="cls-1" d="M218.63,83.83q-7.06-5.16-14.45-10.62a27.14,27.14,0,0,1-11.36-20.79q-.28-8.91-1.19-17.8-4.65,1.47-9.4,3a14.11,14.11,0,0,1-10.72-1,12.69,12.69,0,0,1-6.08-6.4q-3.06-7.65-6.27-15.35c-3,3.16-6.24,6.36-9.53,9.61a8,8,0,0,1-7.58,1.75,8.13,8.13,0,0,1-5.57-4.34q-3.73-8.05-7.35-16.1-3.09,4.86-6.42,9.76a8.6,8.6,0,0,1-7.65,3.55A8.46,8.46,0,0,1,108,15.05Q104.8,9.61,101.87,4.2q-4.23,7.44-8.74,14.85a13,13,0,0,1-8.24,5.73,12.21,12.21,0,0,1-10.31-2q-2.81-2.22-5.52-4.39-3.39,5.09-6.82,10.12C55.88,38,43.09,42.72,32.1,40.5q-4.59-.91-9.12-1.76-.54,6.42-.71,12.85C22,60.44,17.42,69.15,9.19,75Q4.54,78.25,0,81.39q5.55,2.13,11.14,4.37a60,60,0,0,1,29.57,25q4.56,7.71,9.23,15.57l6-4.1a13.9,13.9,0,0,1,11.15-1.6,15.28,15.28,0,0,1,9.09,6.17q3.82,5.64,7.54,11.33,2.66-3.67,5.45-7.42a7.55,7.55,0,0,1,6.89-2.7,8.14,8.14,0,0,1,6.3,3.84q3,5.15,5.86,10.31,3.51-5.34,7.24-10.73a8,8,0,0,1,6.56-3.31h.14a7.58,7.58,0,0,1,6.39,3.15q2.72,4.06,5.28,8.09,3.81-5.79,7.77-11.59a14.79,14.79,0,0,1,9.12-6,13.71,13.71,0,0,1,11.16,2c2,1.49,4,3,6,4.44,3.53-6,7.05-12,10.48-18a45,45,0,0,1,22-18.91Q209.49,87.45,218.63,83.83ZM172.3,107.34c-1.92,3.44-3.88,6.9-5.84,10.37-9.07-6.52-23.72-3.78-30.35,6.24l-1.93,2.9c-5.42-8.07-18.59-7.9-24.21.33l-1.33,1.95c-.18-.31-.36-.62-.53-.93-5.08-8.9-18.56-9.94-24.42-2.22l-.1.13-1.92-2.9c-6.61-10-21.22-12.95-30.28-6.88q-2.34-4.08-4.66-8.13A65.21,65.21,0,0,0,13.75,80,36.94,36.94,0,0,0,29.39,50.82c0-1.27.06-2.55.11-3.83,14.14,3,30.25-2.9,38.3-15.12.73-1.1,1.46-2.19,2.18-3.29h0c8.56,6.63,22.94,4,28.82-5.94l2.8-4.72c.19.34.38.68.58,1,5.32,9.39,20,10,26.07,1h0l2.1,4.68c4.14,9.36,17.34,12,24.33,5.31l2.55-2.48c.6,1.53,1.19,3.05,1.77,4.58,3.8,10.08,16.13,15.61,26.36,12.23.14,2.53.23,5.05.3,7.57a34.62,34.62,0,0,0,14,26.68l5,3.72L197.86,85A51.37,51.37,0,0,0,172.3,107.34Z"/><path class="cls-1" d="M190.73,102.72c8,2.75,15.79,5.29,23.35,7.54q2.46-4.16,4.75-8.23Q204.78,102.56,190.73,102.72Z"/><path class="cls-1" d="M196,124.07q3.69-3.85,7.36-7.62-7.24-4.41-15.17-9.33A179.81,179.81,0,0,1,196,124.07Z"/><path class="cls-1" d="M173.14,13.4q-1.12,7.16-2.79,14.39c2.55-3.68,4.94-7.29,7.13-10.83Z"/><path class="cls-1" d="M183.39,27.87l-3.53-4.66q-3.53,3.18-7.34,6.54Q178,28.69,183.39,27.87Z"/><path class="cls-1" d="M67.27,147l6.54,2.45q-2.22-10.89-4.13-21.75C68.65,134.17,67.83,140.61,67.27,147Z"/><path class="cls-1" d="M61.35,139.5c1.42-4.32,3-8.75,4.76-13.27-3.89,3.09-7.65,6-11.25,8.75C57,136.49,59.21,138,61.35,139.5Z"/><path class="cls-1" d="M75.93.17,69.66,3.76c4.14,4.57,8.57,9.31,13.22,14.18Q79.08,8.85,75.93.17Z"/><path class="cls-1" d="M90.46,0,83.63,1.46c.79,4.88,1.69,9.85,2.69,14.88C87.67,10.83,89.06,5.37,90.46,0Z"/><path class="cls-2" d="M203.78,48.76c.39.83.77,1.67,1.14,2.5.09-.84.17-1.68.25-2.52a3.24,3.24,0,0,1,2.38-2.93l2.4-.68-2.69-.67a5.56,5.56,0,0,1-3.58-2.88l-1.26-2.51c0,.83-.06,1.67-.1,2.51a3.18,3.18,0,0,1-2.32,3l-2.42.72,2.68.64A5.28,5.28,0,0,1,203.78,48.76Z"/><path class="cls-2" d="M153,128.8,151.62,127l0,2.52a5.43,5.43,0,0,1-2.17,4l-2.31,1.84,2.66-.66a3.27,3.27,0,0,1,3.61,1.07c.43.62.86,1.23,1.28,1.85,0-.84.05-1.69.07-2.53a5.56,5.56,0,0,1,2.21-4l2.37-1.87-2.7.7A3.32,3.32,0,0,1,153,128.8Z"/><path class="cls-2" d="M31,109.57l-1.57-1.84.48,2.39a3.89,3.89,0,0,1-1.14,3.63L27,115.31l2.28-.42a3.74,3.74,0,0,1,3.52,1.3l1.57,1.86c-.17-.8-.33-1.6-.5-2.4A3.88,3.88,0,0,1,35.07,112l1.76-1.61-2.31.46A3.7,3.7,0,0,1,31,109.57Z"/><path class="cls-2" d="M53.88,25.22c.36.58.71,1.15,1.08,1.72l.15-2.46a6.36,6.36,0,0,1,2.12-4l2.14-2L57,19.32a2.49,2.49,0,0,1-3.13-.81c-.34-.56-.69-1.13-1-1.7-.07.82-.14,1.64-.2,2.46a6.39,6.39,0,0,1-2.17,4l-2.19,1.95,2.42-.83A2.55,2.55,0,0,1,53.88,25.22Z"/><path class="cls-3" d="M199.67,78.54a34.62,34.62,0,0,1-14-26.68c-.07-2.52-.16-5-.3-7.57C175.13,47.67,162.8,42.14,159,32.06c-.58-1.53-1.17-3.05-1.77-4.58L154.68,30c-7,6.73-20.19,4-24.33-5.31L128.25,20h0c-6.08,8.94-20.75,8.36-26.07-1-.2-.34-.39-.68-.58-1l-2.8,4.72C92.92,32.58,78.54,35.21,70,28.58h0c-.72,1.1-1.45,2.19-2.18,3.29C59.75,44.09,43.64,50,29.5,47c-.05,1.28-.08,2.56-.11,3.83A36.94,36.94,0,0,1,13.75,80a65.21,65.21,0,0,1,33,28.25q2.31,4,4.66,8.13c9.06-6.07,23.67-3.17,30.28,6.88l1.92,2.9.1-.13c5.86-7.72,19.34-6.68,24.42,2.22.17.31.35.62.53.93l1.33-1.95c5.62-8.23,18.79-8.4,24.21-.33l1.93-2.9c6.63-10,21.28-12.76,30.35-6.24,2-3.47,3.92-6.93,5.84-10.37A51.37,51.37,0,0,1,197.86,85l6.79-2.75Z"/></g></g></svg>