<svg xmlns="http://www.w3.org/2000/svg" viewBox="0 0 451.24 275.93"><defs><style>.cls-1{fill:#ffca28;}.cls-2{fill:#e02229;}.cls-3{fill:#ff151f;}</style></defs><g id="Layer_2" data-name="Layer 2"><g id="Layer_1-2" data-name="Layer 1"><polygon class="cls-1" points="432.76 83.59 396.06 118.38 412.06 119.54 386.08 138.4 432.5 118.88 418.86 110.54 433.71 82.08 432.76 83.59"/><polygon class="cls-1" points="67.94 138.13 51.11 137.72 62.38 107.11 61.61 108.75 29.27 148.85 45.44 147.7 22.38 204.79 67.94 138.13"/><path class="cls-2" d="M451.24,45.75,345.79,90l25.07-78.57-149,63.11,4.37-51.47-100.85,62L38.19,57l46.26,68.23L0,253.55l102.76-52.24-3.33,74.62,141.41-86.36-10.19,70.29,88.79-75.09,106.09,10.59-55.79-60.07ZM400.43,182.53l-82.31-8.21-76.39,64.6,9.61-66.32L106.47,261,110,189.12l-84,47,69.66-111L62,75.49,125.66,96l93-56.23-4.48,48.39L357.39,27.49,332.34,106l85-35.66-59.93,65.85Z"/><polygon class="cls-3" points="417.32 70.33 332.34 105.99 357.39 27.49 214.17 88.14 218.65 39.75 125.66 95.98 61.98 75.49 95.65 125.16 25.99 236.15 110.02 189.12 106.47 261.01 251.34 172.6 241.73 238.92 318.12 174.32 400.43 182.53 357.39 136.18 417.32 70.33"/><polygon class="cls-1" points="292.03 34.56 271.91 26.5 304.22 0 302.84 1.05 249.53 28.8 262.73 32.6 230.27 64.48 292.03 34.56"/><polygon class="cls-1" points="228.97 206.29 185 236.75 199.63 238.51 155.55 261.01 225.62 242.1 208.48 230.51 230.27 204.94 228.97 206.29"/><path class="cls-1" d="M387,37.6l2.55,3.79-.27-5.17a10.86,10.86,0,0,1,3.24-8.14l3.82-3.75-4.6,1.33a5.73,5.73,0,0,1-6.57-2.25l-2.6-3.81.33,5.18A10.83,10.83,0,0,1,379.67,33l-3.84,3.78,4.61-1.36A5.7,5.7,0,0,1,387,37.6Z"/><path class="cls-1" d="M80.33,225.89l-2.6-3.81c.12,1.73.23,3.46.33,5.18a10.78,10.78,0,0,1-3.21,8.17L71,239.21l4.61-1.36a5.7,5.7,0,0,1,6.55,2.23q1.29,1.9,2.55,3.79-.12-2.58-.27-5.16a10.9,10.9,0,0,1,3.24-8.15l3.82-3.75-4.6,1.34A5.76,5.76,0,0,1,80.33,225.89Z"/></g></g></svg>