<svg xmlns="http://www.w3.org/2000/svg" xmlns:xlink="http://www.w3.org/1999/xlink" viewBox="0 0 655 589"><defs><style>.cls-1{fill:none;}.cls-2{fill:#007e9a;}.cls-3{fill:url(#radial-gradient);}</style><radialGradient id="radial-gradient" cx="2336.88" cy="83.26" r="19.32" gradientTransform="matrix(-2.92, -0.75, -1.34, 4.95, 7418.31, 1545.39)" gradientUnits="userSpaceOnUse"><stop offset="0" stop-color="#d7d8dc"/><stop offset="0.25" stop-color="#ebedef"/><stop offset="0.75" stop-color="#aeadb3"/><stop offset="1" stop-color="#d7d8dc"/></radialGradient></defs><g id="Layer_2" data-name="Layer 2"><g id="Layer_1-2" data-name="Layer 1"><path class="cls-1" d="M492.78,152.5l14.18-16,3.1,1.62-14,16.12Z"/><path class="cls-1" d="M384.28,373c3.16,7.49-48.62,35.53-77.84,39.19,13.92-5.76,28.37-10.84,41.59-17.48C360.73,388.32,372.16,380.33,384.28,373Z"/><path class="cls-1" d="M198.8,391a75.85,75.85,0,0,0,8.18-4.14A23,23,0,0,1,198.8,391Z"/><path class="cls-1" d="M117.58,487.15l-1.85-2c38.07-23.27,80-41.41,124.09-56.67Z"/><path class="cls-2" d="M297.7,188.24c-3,9.47-9.51,15.34-19.16,20.53-24.39,13.12-41.5,30.5-48.42,53.71a84.67,84.67,0,0,1-8.82,19.59c-7.33,12.06-15.59,23.78-23.33,35.7-2.94,4.51-6.75,9.19-1.24,14.09,13.46,12,39.67,7.76,46.55-8,15.63.32,18.85-3,14.25-14-1-2.29-1.67-4.64-2.55-6.95-4.83-12.48-4.73-12.37,8.32-20.66,18.79-11.92,38.3-23.5,47.86-41.91,9.36-18,28.46-25.58,50.27-30.3,2.44-.53,6.93.68,8.42,2.28,9.75,10.52,19.48,21.11,28,32.27,2.73,3.58,4.41,10.5,1.92,13.17-6.43,6.89-14.26,15.4-23.67,17.65-29.88,7.15-50.34,20.91-62,43.72-4.83,9.4-13.52,16.38-26,20.48C256.91,350,231,366.14,208.31,385.79c-.43.37-.88.7-1.33,1A75.85,75.85,0,0,1,198.8,391a30.71,30.71,0,0,1-11.26.66,63.78,63.78,0,0,0-17,.82c-7.22-3.05-13.78-9-20-18-1-1.38-2-2.74-3.89-5.41-43.44,21-80.48,48-118.19,71.16,3-13.85,5.4-28.57,9.66-43,1.62-5.48,6.55-10.88,11.65-15,4.55-3.71,11.5-5.55,17.24-8.41,12.65-6.3,22.72-14.42,28.21-25.68,5.06-10.37,4.34-20.26-5.45-28.58-17.82-15.15-10.29-39.26-3.41-52.61,1-1.9,4.3-3.29,6.9-4.39q109.89-46.59,219.88-93.07C306.06,174.58,300.16,180.46,297.7,188.24Z"/><path class="cls-2" d="M422.58,145.71l53,15.25C462.4,162.55,431.06,154.22,422.58,145.71Z"/><path class="cls-2" d="M396.9,134l5.5-2.33c.46,1.3.94,2.6,1.49,3.85Q400.29,134.54,396.9,134Z"/><path d="M0,588.13c1.06.3,2.12.58,3.19.87L37.7,565.64,40.13,586l3.27.86c5.44-3.42,11.54-6.36,16.19-10.36,13.1-11.23,27.12-22.07,38-34.58,19.23-22.09,44.73-38.07,71.05-54.44,46.37-28.86,97.23-49.26,153.44-62.54a148.72,148.72,0,0,0,40.55-16,493,493,0,0,0,90.84-68.72A114.92,114.92,0,0,0,472.76,315C483.29,297,493,278.72,509,263.14c16.72-16.25,30.41-33.59,31.34-55.47a13.08,13.08,0,0,1,2-7c7.08-9.9,4.21-19.81.23-29.6-2.18-5.37-1-9.24,3.18-14,7.3-8.34,12.83-17.64,19.27-26.46,3.87-5.32,6.86-11.53,12.36-15.51,12.78-9.25,19.93-20.2,24.54-33.37,5.45-15.57,13.2-30.6,37.81-33.92,7.42-1,16.39-5.16,15.18-12.19C653,24.91,648.53,14.46,644.28,4.13c-.81-2-6.22-4.59-8.44-4.06a136.06,136.06,0,0,0-24.9,8.09c-10.92,5-7.4,12.45-2.6,19.65-14.48,10-28.05,20.1-42.69,29.14S541,76.72,536.4,90.78c-6.53,20-24.95,31.71-45.83,42.27-2.77-1.9-2.53-8.41-.36-9.7,20.18-11.92,20.08-21.23.4-33.35L457,67.27c-5.13-3.71,0-13.66-1.29-24.5-13.92,11.58-41.79,33.14-54.61,45.14-17.88,16.75-17.19,17-2.89,35.08,2,2.57,3.1,5.62,4.2,8.66.46,1.3.94,2.6,1.49,3.85q-3.6-1-7-1.52c-15.65-2.6-28,1.14-39.78,8.56-9.23,5.84-19,11.11-28.36,16.85-5.28,3.25-10.74,6.48-15.64,10.05-7.06,5.14-13,11-15.42,18.8-3,9.47-9.51,15.34-19.16,20.53-24.39,13.12-41.5,30.5-48.42,53.71a84.67,84.67,0,0,1-8.82,19.59c-7.33,12.06-15.59,23.78-23.33,35.7-2.94,4.51-6.75,9.19-1.24,14.09,13.46,12,39.67,7.76,46.55-8,15.63.32,18.85-3,14.25-14-1-2.29-1.67-4.64-2.55-6.95-4.83-12.48-4.73-12.37,8.32-20.66,18.79-11.92,38.3-23.5,47.86-41.91,9.36-18,28.46-25.58,50.27-30.3,2.44-.53,6.93.68,8.42,2.28,9.75,10.52,19.48,21.11,28,32.27,2.73,3.58,4.41,10.5,1.92,13.17-6.43,6.89-14.26,15.4-23.67,17.65-29.88,7.15-50.34,20.91-62,43.72-4.83,9.4-13.52,16.38-26,20.48C256.91,350,231,366.14,208.31,385.79c-.43.37-.88.7-1.33,1A23,23,0,0,1,198.8,391a30.71,30.71,0,0,1-11.26.66,63.78,63.78,0,0,0-17,.82c-2.22.38-4.41.85-6.51,1.38-17.74,4.51-28.44,15.53-38.39,27.41C110.44,439.33,94.51,457,78.46,474.63c-5.32,5.83-13.18,9.05-22.29,5.57-17.26-6.58-35.66,9-35.44,20.19a107.24,107.24,0,0,1-1.13,20.1c-.78,4.63-3.22,9.13-5.37,13.53C10.9,540.89,5.63,547.4,4,554.47,1.43,565.51,1.21,576.89,0,588.13ZM422.58,145.71l53,15.25C462.4,162.55,431.06,154.22,422.58,145.71Zm87.48-7.57-14,16.12-3.3-1.76,14.18-16Zm-75,44.33s66.65-5,100.93,2.06c0,0-15.21,34.13-25.18,44.76C510.8,229.29,447.94,191.54,435.05,182.47ZM306.44,412.17c13.92-5.76,28.37-10.84,41.59-17.48,12.7-6.37,24.13-14.36,36.25-21.71C387.44,380.47,335.66,408.51,306.44,412.17Zm-190.71,73c38.07-23.27,80-41.41,124.09-56.67L117.58,487.15Z"/><path d="M435.05,182.47s66.65-5,100.93,2.06c0,0-15.21,34.13-25.18,44.76C510.8,229.29,447.94,191.54,435.05,182.47Z"/><path class="cls-3" d="M435.05,182.47s66.65-5,100.93,2.06c0,0-15.21,34.13-25.18,44.76C510.8,229.29,447.94,191.54,435.05,182.47Z"/></g></g></svg>