<svg xmlns="http://www.w3.org/2000/svg" viewBox="0 0 318.03 511.98"><defs><style>.cls-1{fill:#ffdc64;}.cls-2{fill:#ffc850;}</style></defs><g id="Layer_2" data-name="Layer 2"><g id="Capa_1" data-name="Capa 1"><path class="cls-1" d="M109.09,506.71v0Z"/><path class="cls-1" d="M199.26.16l.35-.08Z"/><path class="cls-1" d="M198.52.41l.21-.08Z"/><path class="cls-1" d="M11.85,275.53A10.71,10.71,0,0,1,0,265.15a10.71,10.71,0,0,0,11.85,10.38l144.82-15.24h0Z"/><path class="cls-1" d="M305.87,153.28,174.5,171.14,205.89,6.35a5.35,5.35,0,0,0-6-6.3A5.58,5.58,0,0,1,204,1.22L58.81,233.51a4.43,4.43,0,0,0,4.11,6.76l113.41-9.07a17.82,17.82,0,0,1,18.42,23.14L113.4,511.79a5.52,5.52,0,0,1-3.77-2.79,5.37,5.37,0,0,0,9.44.3l197.49-340A10.7,10.7,0,0,0,305.87,153.28Z"/><path class="cls-1" d="M197,1.44l.11-.11Z"/><path class="cls-1" d="M109.19,507.77l0-.22Z"/><path class="cls-1" d="M109.53,508.79a3.68,3.68,0,0,1-.15-.35A2.17,2.17,0,0,0,109.53,508.79Z"/><path class="cls-1" d="M197.75.82l.15-.09Z"/><path class="cls-2" d="M113.4,511.79l81.35-257.45a17.82,17.82,0,0,0-18.42-23.14L62.92,240.27a4.43,4.43,0,0,1-4.11-6.76L204,1.22A5.58,5.58,0,0,0,199.86.05l-.25,0-.35.08a3.62,3.62,0,0,0-.53.17l-.21.08a5.2,5.2,0,0,0-.62.32l-.15.09a6.05,6.05,0,0,0-.65.51l-.11.11a6.88,6.88,0,0,0-.62.68L2.2,258.43A10.57,10.57,0,0,0,0,265.15a10.71,10.71,0,0,0,11.85,10.38l144.82-15.24h0l-47.48,245.3a7.07,7.07,0,0,0-.1,1v.13a4.61,4.61,0,0,0,.07.84l0,.22a5.12,5.12,0,0,0,.19.67,3.68,3.68,0,0,0,.15.35c0,.08.07.14.1.21A5.52,5.52,0,0,0,113.4,511.79Z"/></g></g></svg>