<svg xmlns="http://www.w3.org/2000/svg" xmlns:xlink="http://www.w3.org/1999/xlink" viewBox="0 0 1920 1013.19"><defs><style>.cls-1{fill:url(#linear-gradient);}</style><linearGradient id="linear-gradient" x1="4.28" y1="1011.75" x2="1673.87" y2="86.28" gradientUnits="userSpaceOnUse"><stop offset="0" stop-color="#aa3800" stop-opacity="0.9"/><stop offset="0.03" stop-color="#993304" stop-opacity="0.9"/><stop offset="0.14" stop-color="#6a2710" stop-opacity="0.9"/><stop offset="0.25" stop-color="#441d19" stop-opacity="0.9"/><stop offset="0.36" stop-color="#261521" stop-opacity="0.9"/><stop offset="0.47" stop-color="#110f26" stop-opacity="0.9"/><stop offset="0.59" stop-color="#040c29" stop-opacity="0.9"/><stop offset="0.71" stop-color="#000b2a" stop-opacity="0.9"/></linearGradient></defs><g id="Layer_2" data-name="Layer 2"><g id="Layer_1-2" data-name="Layer 1"><path class="cls-1" d="M418,1000.41c16.08,6.53,32.73,14,50.11,12.61,14.37-1.15,27.4-8.25,40.19-14.69C651.82,926,829.59,920.88,977.32,984.89c18.65,8.08,37.78,17.39,58.2,16.69,17.63-.6,33.94-8.62,50-15.73,141.9-62.76,312.58-61,453.07,4.69,18,8.41,36,17.94,55.76,20.39,44.14,5.45,83.49-23.34,124.78-33.17,44.34-10.56,91.24-17.37,136.95-17.37A571.42,571.42,0,0,1,1920,964V540s-74-270-491-270S960,0,960,0H0V1004C131.07,948.16,285.87,946.73,418,1000.41Z"/></g></g></svg>